<svg xmlns="http://www.w3.org/2000/svg" xmlns:xlink="http://www.w3.org/1999/xlink" width="500" zoomAndPan="magnify" viewBox="0 0 375 374.999991" height="500" preserveAspectRatio="xMidYMid meet" version="1.0"><defs><clipPath id="9aec203afe"><path d="M 62.957031 45.386719 L 311.957031 45.386719 L 311.957031 329.636719 L 62.957031 329.636719 Z M 62.957031 45.386719 " clip-rule="nonzero"/></clipPath></defs><path fill="#131410" d="M 268.167969 140.855469 C 267.664062 139.925781 267 139.007812 265.621094 138.3125 L 245.90625 126.917969 C 245.632812 126.761719 245.339844 126.644531 245.03125 126.566406 C 244.933594 126.542969 244.835938 126.542969 244.726562 126.527344 C 244.523438 126.492188 244.320312 126.453125 244.113281 126.457031 L 244.078125 126.453125 L 244.078125 126.464844 C 243.492188 126.472656 242.917969 126.632812 242.414062 126.921875 L 198.050781 152.550781 L 198.011719 152.472656 L 194.433594 154.542969 C 190.113281 157.035156 184.800781 157.035156 180.484375 154.542969 L 161.089844 143.34375 C 160.015625 142.71875 159.351562 141.566406 159.351562 140.320312 C 159.351562 139.074219 160.015625 137.921875 161.089844 137.300781 L 180.484375 126.105469 C 184.800781 123.613281 190.113281 123.613281 194.433594 126.105469 L 199.101562 128.800781 C 200.179688 129.421875 201.503906 129.421875 202.582031 128.800781 L 220.644531 118.371094 C 221.726562 117.75 222.386719 116.597656 222.386719 115.351562 C 222.386719 114.105469 221.726562 112.953125 220.644531 112.332031 L 194.433594 97.1875 C 190.113281 94.695312 184.800781 94.695312 180.484375 97.1875 L 116.265625 134.28125 C 111.617188 136.964844 111.617188 143.675781 116.265625 146.359375 L 180.484375 183.453125 C 184.800781 185.945312 190.113281 185.945312 194.433594 183.453125 L 244.078125 154.777344 L 244.078125 220.101562 L 228.125 229.347656 L 194.433594 248.867188 C 193.363281 249.480469 192.222656 249.945312 191.039062 250.269531 C 187.476562 251.210938 183.683594 250.707031 180.484375 248.867188 L 134.320312 222.203125 C 132.164062 220.957031 130.835938 218.652344 130.835938 216.160156 L 130.835938 178.082031 C 130.835938 176.835938 130.167969 175.679688 129.09375 175.066406 L 111.035156 164.625 C 109.957031 164.003906 108.628906 164.003906 107.546875 164.625 C 106.46875 165.25 105.804688 166.40625 105.804688 167.652344 L 105.804688 230.621094 C 105.804688 233.113281 107.136719 235.410156 109.292969 236.664062 L 180.484375 277.785156 C 182.574219 278.992188 184.949219 279.625 187.359375 279.644531 L 187.410156 279.644531 C 187.75 279.644531 188.089844 279.605469 188.429688 279.585938 C 188.691406 279.566406 188.957031 279.566406 189.21875 279.539062 C 189.578125 279.488281 189.9375 279.402344 190.289062 279.335938 C 190.53125 279.277344 190.773438 279.246094 191.007812 279.1875 C 191.398438 279.089844 191.765625 278.945312 192.136719 278.808594 C 192.351562 278.730469 192.554688 278.683594 192.75 278.605469 C 193.324219 278.371094 193.886719 278.097656 194.421875 277.785156 L 255.84375 242.308594 L 265.582031 236.78125 C 267.761719 235.542969 269.113281 233.230469 269.113281 230.71875 L 269.113281 144.347656 C 269.113281 143.101562 268.773438 141.898438 268.167969 140.855469 " fill-opacity="1" fill-rule="nonzero"/><g clip-path="url(#9aec203afe)"><path fill="#131410" d="M 194.257812 76.324219 C 192.183594 75.132812 189.851562 74.492188 187.457031 74.472656 C 185.074219 74.492188 182.730469 75.132812 180.660156 76.324219 L 94.875 125.878906 C 90.570312 128.363281 87.921875 132.957031 87.921875 137.925781 L 87.921875 237.035156 C 87.917969 242.007812 90.570312 246.601562 94.875 249.082031 L 180.660156 298.632812 C 182.761719 299.851562 185.132812 300.492188 187.554688 300.5 C 189.976562 300.492188 192.359375 299.851562 194.460938 298.644531 L 279.871094 249.308594 C 284.167969 246.824219 286.824219 242.234375 286.824219 237.261719 L 286.824219 208.621094 C 286.816406 207.375 287.484375 206.226562 288.554688 205.605469 L 306.746094 195.105469 C 307.8125 194.484375 309.148438 194.484375 310.21875 195.105469 C 311.296875 195.730469 311.957031 196.875 311.957031 198.121094 L 311.957031 251.457031 C 311.949219 253.734375 311.382812 255.972656 310.3125 257.976562 C 310.042969 259.292969 308.613281 260.839844 306.589844 262.425781 C 306.550781 262.464844 306.492188 262.503906 306.441406 262.542969 C 301.308594 266.539062 292.804688 270.667969 291.296875 271.542969 L 194.460938 327.476562 C 192.292969 328.722656 189.820312 329.363281 187.320312 329.335938 L 187.214844 329.335938 L 187.214844 329.324219 C 184.910156 329.265625 182.652344 328.625 180.660156 327.476562 L 69.914062 263.503906 C 65.609375 261.023438 62.957031 256.429688 62.957031 251.457031 L 62.957031 123.515625 C 62.957031 121.28125 63.242188 119.003906 64.222656 117.078125 C 64.355469 116.582031 65.699219 114.121094 68.460938 112.101562 C 69.503906 111.398438 71.347656 110.453125 73.074219 109.453125 L 180.347656 47.492188 C 182.507812 46.25 184.96875 45.609375 187.457031 45.640625 C 189.957031 45.609375 192.410156 46.25 194.570312 47.496094 L 293.554688 104.664062 C 293.78125 104.800781 293.957031 104.964844 294.148438 105.121094 L 295.40625 105.839844 C 298.769531 107.625 304.042969 110.347656 306.902344 112.519531 L 307.132812 112.695312 C 307.171875 112.726562 307.210938 112.753906 307.25 112.78125 C 307.347656 112.863281 307.417969 112.945312 307.515625 113.035156 C 308.5625 113.914062 309.460938 114.945312 310.148438 116.097656 C 310.167969 116.113281 310.179688 116.132812 310.199219 116.152344 L 310.1875 116.15625 C 311.347656 118.089844 311.957031 120.296875 311.957031 122.546875 L 311.957031 169.394531 C 311.957031 170.640625 311.296875 171.789062 310.21875 172.414062 L 292.027344 182.921875 C 290.960938 183.535156 289.625 183.535156 288.558594 182.921875 C 287.476562 182.300781 286.816406 181.152344 286.816406 179.90625 L 286.816406 137.65625 C 286.816406 132.679688 284.160156 128.082031 279.851562 125.601562 L 194.257812 76.324219 L 194.257812 76.328125 Z M 194.257812 76.324219 " fill-opacity="1" fill-rule="nonzero"/></g></svg>